<svg xmlns="http://www.w3.org/2000/svg" viewBox="0 0 700 430" font-family="Arial, Helvetica, sans-serif">
  <rect width="700" height="430" fill="#fff"/>
  <defs>
    <linearGradient id="tg" x1="0" y1="0" x2="0" y2="1">
      <stop offset="0%" stop-color="#fff7cc"/>
      <stop offset="100%" stop-color="#fde68a"/>
    </linearGradient>
    <linearGradient id="fg" x1="0" y1="0" x2="0" y2="1">
      <stop offset="0%" stop-color="#fcd34d"/>
      <stop offset="100%" stop-color="#d97706"/>
    </linearGradient>
    <linearGradient id="sg" x1="0" y1="0" x2="0" y2="1">
      <stop offset="0%" stop-color="#d97706"/>
      <stop offset="100%" stop-color="#92400e"/>
    </linearGradient>
    <marker id="arrow" viewBox="0 0 10 10" refX="9" refY="5" markerWidth="7" markerHeight="7" orient="auto">
      <path d="M 0 0 L 10 5 L 0 10 z" fill="#374151"/>
    </marker>
    <marker id="grn" viewBox="0 0 10 10" refX="9" refY="5" markerWidth="7" markerHeight="7" orient="auto">
      <path d="M 0 0 L 10 5 L 0 10 z" fill="#15803d"/>
    </marker>
  </defs>

  <text x="350" y="36" text-anchor="middle" font-size="18" font-weight="800" fill="#1f2937">Job size — smaller box = scheduled sooner</text>

  <!-- Axes: origin lower-left (55, 335) -->
  <g stroke="#374151" stroke-width="2.5" fill="none">
    <line x1="55" y1="335" x2="55" y2="76" marker-end="url(#arrow)"/>
    <line x1="55" y1="335" x2="610" y2="335" marker-end="url(#arrow)"/>
    <line x1="55" y1="335" x2="85" y2="313" marker-end="url(#arrow)"/>
  </g>
  <g fill="#374151">
    <text x="60" y="72" font-size="13" font-weight="700">Computing</text>
    <text x="60" y="87" font-size="10" fill="#6b7280">CPUs / GPUs</text>
    <text x="615" y="331" font-size="13" font-weight="700">--time</text>
    <text x="615" y="346" font-size="10" fill="#6b7280">walltime</text>
  </g>
  <!-- memory label below baseline, left-anchored; z-axis stub points in this direction -->
  <text x="57" y="356" font-size="10" fill="#9ca3af">&#x2197; memory (auto-allocated)</text>

  <!-- Big Job 1 (running): translate(90,335), front 145×130, depth (45,−26) -->
  <!-- front-right x=235, back-right x=280 -->
  <g transform="translate(90 335)">
    <polygon points="0,-130 145,-130 190,-156 45,-156" fill="url(#tg)" stroke="#78350f" stroke-width="1.5"/>
    <polygon points="0,0 145,0 145,-130 0,-130" fill="url(#fg)" stroke="#78350f" stroke-width="1.5"/>
    <polygon points="145,0 190,-26 190,-156 145,-130" fill="url(#sg)" stroke="#78350f" stroke-width="1.5"/>
    <text x="72" y="-72" text-anchor="middle" font-size="20" font-weight="800" fill="#fff">Big job</text>
    <text x="72" y="-50" text-anchor="middle" font-size="13" fill="#fff">256 CPUs · 24 h</text>
  </g>

  <!-- Small Job (in gap): translate(295,335), front 40×36, depth (14,−8) -->
  <!-- proportional ~0.28× of big job; back-right x=349 -->
  <g transform="translate(295 335)">
    <polygon points="0,-36 40,-36 54,-44 14,-44" fill="url(#tg)" stroke="#78350f" stroke-width="1.5"/>
    <polygon points="0,0 40,0 40,-36 0,-36" fill="url(#fg)" stroke="#78350f" stroke-width="1.5"/>
    <polygon points="40,0 54,-8 54,-44 40,-36" fill="url(#sg)" stroke="#78350f" stroke-width="1.5"/>
  </g>
  <text x="315" y="352" text-anchor="middle" font-size="10" fill="#6b7280">8 CPUs · 15 min</text>

  <!-- "smaller job runs sooner" label + arrow to small job top -->
  <rect x="237" y="167" width="166" height="25" rx="12" fill="#dcfce7" stroke="#15803d" stroke-width="1.5"/>
  <text x="320" y="184" text-anchor="middle" font-size="13" font-style="italic" font-weight="700" fill="#15803d">smaller job runs sooner</text>
  <line x1="320" y1="193" x2="320" y2="287" stroke="#15803d" stroke-width="1.8" stroke-dasharray="5,4" marker-end="url(#grn)"/>

  <!-- Big Job 2 (queued): translate(363,335), same size as Big Job 1, dashed gray -->
  <g transform="translate(363 335)">
    <polygon points="0,-130 145,-130 190,-156 45,-156" fill="#f3f4f6" stroke="#9ca3af" stroke-width="1.5" stroke-dasharray="8,5"/>
    <polygon points="0,0 145,0 145,-130 0,-130" fill="#e5e7eb" stroke="#9ca3af" stroke-width="1.5" stroke-dasharray="8,5"/>
    <polygon points="145,0 190,-26 190,-156 145,-130" fill="#d1d5db" stroke="#9ca3af" stroke-width="1.5" stroke-dasharray="8,5"/>
    <text x="72" y="-72" text-anchor="middle" font-size="19" font-weight="800" fill="#9ca3af">Big job</text>
    <text x="72" y="-50" text-anchor="middle" font-size="12" fill="#9ca3af">256 CPUs · 24 h</text>
    <text x="72" y="-30" text-anchor="middle" font-size="12" font-style="italic" fill="#9ca3af">(queued)</text>
  </g>

  <text x="350" y="412" text-anchor="middle" font-size="13" font-style="italic" fill="#6b7280">Start small, measure with glances / nvidia-smi, then scale up.</text>
</svg>
